<svg width="82" height="82" viewBox="0 0 82 82" fill="none" xmlns="http://www.w3.org/2000/svg">
<path d="M4.4 62.1863V20.5013C4.4 17.6844 6.68604 15.4 9.50128 15.4H72.4951C75.3074 15.4 77.6 17.6814 77.6 20.5013V62.1863C77.6 65.0011 75.3106 67.2876 72.4951 67.2876H9.50128C6.68613 67.2876 4.4 65.0014 4.4 62.1863ZM74.9167 62.1863V20.5013C74.9167 19.17 73.8345 18.0815 72.4951 18.0815H9.50128C8.16593 18.0815 7.08148 19.1659 7.08148 20.5013V62.1863C7.08148 63.52 8.16616 64.6043 9.50128 64.6043H72.4951C73.8297 64.6043 74.9167 63.5205 74.9167 62.1863Z" fill="#E7A45D" stroke="white" stroke-width="0.8"/>
<path d="M10.4621 21.9774C10.4621 21.251 11.056 20.6566 11.7847 20.6566C12.5103 20.6566 13.1018 21.2498 13.1018 21.9774C13.1018 22.7024 12.511 23.2945 11.7847 23.2945C11.0553 23.2945 10.4621 22.7012 10.4621 21.9774ZM15.1889 21.9774C15.1889 21.25 15.782 20.6566 16.506 20.6566C17.2347 20.6566 17.8286 21.251 17.8286 21.9774C17.8286 22.7012 17.2355 23.2945 16.506 23.2945C15.7812 23.2945 15.1889 22.7022 15.1889 21.9774ZM19.9139 21.9774C19.9139 21.2503 20.5086 20.6566 21.231 20.6566C21.9592 20.6566 22.5518 21.2505 22.5518 21.9774C22.5518 22.7017 21.96 23.2945 21.231 23.2945C20.5078 23.2945 19.9139 22.7019 19.9139 21.9774Z" fill="#E7A45D" stroke="white" stroke-width="0.7"/>
<path d="M48.8147 58.8492V56.7095H50.9635V58.8492H48.8147ZM53.6779 58.8492V56.7095H55.8231V58.8492H53.6779ZM58.5447 58.8492V56.7095H60.6862V58.8492H58.5447ZM63.4078 58.8492V56.7095H65.5548V58.8492H63.4078ZM48.8147 54.3133V52.1718H50.9635V54.3133H48.8147ZM53.6779 54.3133V52.1718H55.8231V54.3133H53.6779ZM58.5447 54.3133V52.1718H60.6862V54.3133H58.5447ZM63.4078 54.3133V52.1718H65.5548V54.3133H63.4078Z" fill="#E7A45D" stroke="white" stroke-width="0.7"/>
<path d="M56.2967 27.1996H55.3609L56.067 27.8137C56.8175 28.4665 57.292 29.4297 57.292 30.4966C57.292 31.6604 56.7327 32.6958 55.8713 33.3374L55.0244 33.9681H56.0803H62.2543C64.1391 33.9681 65.6712 32.4453 65.6712 30.5857C65.6712 28.7266 64.1396 27.1996 62.2543 27.1996H56.2967ZM48.8147 30.5857C48.8147 28.033 50.9041 25.9652 53.4697 25.9652H62.2543C64.8144 25.9652 66.9056 28.0329 66.9056 30.5857C66.9056 33.1398 64.8148 35.2024 62.2543 35.2024H53.4697C50.9036 35.2024 48.8147 33.1398 48.8147 30.5857Z" fill="#E7A45D" stroke="white" stroke-width="0.7"/>
<path d="M59.6479 40.0617L60.3539 39.4476H59.4182H53.466C51.5751 39.4476 50.0472 40.9748 50.0472 42.8337C50.0472 44.6932 51.5756 46.2161 53.466 46.2161H59.6345H60.6905L59.8436 45.5854C58.9827 44.9443 58.4265 43.9092 58.4265 42.7446C58.4265 41.6787 58.898 40.714 59.6479 40.0617ZM48.8111 42.8337C48.8111 40.281 50.9004 38.2133 53.466 38.2133H62.2488C64.8108 38.2133 66.9019 40.281 66.9019 42.8337C66.9019 45.3897 64.8111 47.4523 62.2488 47.4523H53.466C50.9001 47.4523 48.8111 45.3897 48.8111 42.8337Z" fill="#E7A45D" stroke="white" stroke-width="0.7"/>
<path d="M12.4783 58.8497V34.1122H17.0432V58.8497H12.4783ZM20.3466 58.8461V49.158H24.9134V58.8461H20.3466ZM28.2167 58.8406V39.1808H32.7817V58.8406H28.2167ZM36.0851 58.8406V47.4909H40.6482V58.8406H36.0851Z" fill="#E7A45D" stroke="white" stroke-width="0.7"/>
</svg>
