<svg width="82" height="82" viewBox="0 0 82 82" fill="none" xmlns="http://www.w3.org/2000/svg">
<path d="M54.15 14V14.6H54.75L65.9993 14.6C65.9994 14.6 65.9996 14.6 65.9997 14.6C68.4919 14.603 70.8812 15.5943 72.6434 17.3566C74.4058 19.1189 75.3971 21.5083 75.4 24.0007V63.9993C75.3971 66.4916 74.4058 68.8811 72.6434 70.6434C70.8811 72.4058 68.4916 73.3971 65.9993 73.4H16.0007C13.5083 73.3971 11.1189 72.4058 9.35656 70.6434C7.59429 68.8812 6.60296 66.4919 6.6 63.9997V24.0003C6.60296 21.5081 7.59429 19.1188 9.35656 17.3566C11.1188 15.5943 13.5081 14.603 16.0003 14.6C16.0004 14.6 16.0006 14.6 16.0007 14.6L27.25 14.6H27.85V14V11.5C27.85 10.9961 28.0502 10.5128 28.4065 10.1565C28.7628 9.80018 29.2461 9.6 29.75 9.6C30.2539 9.6 30.7372 9.80018 31.0935 10.1565C31.4498 10.5128 31.65 10.9961 31.65 11.5V14V14.6H32.25H49.75H50.35V14V11.5C50.35 10.9961 50.5502 10.5128 50.9065 10.1565C51.2628 9.80018 51.7461 9.6 52.25 9.6C52.7539 9.6 53.2372 9.80018 53.5935 10.1565C53.9498 10.5128 54.15 10.9961 54.15 11.5V14ZM16 18.4L15.9993 18.4C14.5148 18.4017 13.0916 18.9921 12.0418 20.0418C10.9921 21.0916 10.4017 22.5148 10.4 23.9993V24V29V29.6H11H71H71.6V29V24V23.9993C71.5983 22.5148 71.0079 21.0916 69.9582 20.0418C68.9084 18.9921 67.4852 18.4017 66.0007 18.4H66H54.75H54.15V19V21.5C54.15 22.0039 53.9498 22.4872 53.5935 22.8435C53.2372 23.1998 52.7539 23.4 52.25 23.4C51.7461 23.4 51.2628 23.1998 50.9065 22.8435C50.5502 22.4872 50.35 22.0039 50.35 21.5V19V18.4H49.75H32.25H31.65V19V21.5C31.65 22.0039 31.4498 22.4872 31.0935 22.8435C30.7372 23.1998 30.2539 23.4 29.75 23.4C29.2461 23.4 28.7628 23.1998 28.4065 22.8435C28.0502 22.4872 27.85 22.0039 27.85 21.5V19V18.4H27.25H16ZM15.9993 69.6H16H66V69L66.0007 69.6C67.4852 69.5983 68.9084 69.0079 69.9582 67.9582C71.0079 66.9084 71.5983 65.4852 71.6 64.0007V64V34V33.4H71H11H10.4V34L10.4 64L10.4 64.0007C10.4017 65.4852 10.9921 66.9084 12.0418 67.9582C13.0916 69.0079 14.5148 69.5983 15.9993 69.6Z" fill="#E7A45D" stroke="white" stroke-width="1.2"/>
<path d="M21 39.6H23.5C24.0039 39.6 24.4872 39.8002 24.8435 40.1565C25.1998 40.5128 25.4 40.9961 25.4 41.5C25.4 42.0039 25.1998 42.4872 24.8435 42.8435C24.4872 43.1998 24.0039 43.4 23.5 43.4H21C20.4961 43.4 20.0128 43.1998 19.6565 42.8435C19.3002 42.4872 19.1 42.0039 19.1 41.5C19.1 40.9961 19.3002 40.5128 19.6565 40.1565C20.0128 39.8002 20.4961 39.6 21 39.6Z" fill="#E7A45D" stroke="white" stroke-width="1.2"/>
<path d="M33.5 39.6H36C36.5039 39.6 36.9872 39.8002 37.3435 40.1565C37.6998 40.5128 37.9 40.9961 37.9 41.5C37.9 42.0039 37.6998 42.4872 37.3435 42.8435C36.9872 43.1998 36.5039 43.4 36 43.4H33.5C32.9961 43.4 32.5128 43.1998 32.1565 42.8435C31.8002 42.4872 31.6 42.0039 31.6 41.5C31.6 40.9961 31.8002 40.5128 32.1565 40.1565C32.5128 39.8002 32.9961 39.6 33.5 39.6Z" fill="#E7A45D" stroke="white" stroke-width="1.2"/>
<path d="M58.5 39.6H61C61.5039 39.6 61.9872 39.8002 62.3435 40.1565C62.6998 40.5128 62.9 40.9961 62.9 41.5C62.9 42.0039 62.6998 42.4872 62.3435 42.8435C61.9872 43.1998 61.5039 43.4 61 43.4H58.5C57.9961 43.4 57.5128 43.1998 57.1565 42.8435C56.8002 42.4872 56.6 42.0039 56.6 41.5C56.6 40.9961 56.8002 40.5128 57.1565 40.1565C57.5128 39.8002 57.9961 39.6 58.5 39.6Z" fill="#E7A45D" stroke="white" stroke-width="1.2"/>
<path d="M46 39.6H48.5C49.0039 39.6 49.4872 39.8002 49.8435 40.1565C50.1998 40.5128 50.4 40.9961 50.4 41.5C50.4 42.0039 50.1998 42.4872 49.8435 42.8435C49.4872 43.1998 49.0039 43.4 48.5 43.4H46C45.4961 43.4 45.0128 43.1998 44.6565 42.8435C44.3002 42.4872 44.1 42.0039 44.1 41.5C44.1 40.9961 44.3002 40.5128 44.6565 40.1565C45.0128 39.8002 45.4961 39.6 46 39.6Z" fill="#E7A45D" stroke="white" stroke-width="1.2"/>
<path d="M21 59.6H23.5C24.0039 59.6 24.4872 59.8002 24.8435 60.1565C25.1998 60.5128 25.4 60.9961 25.4 61.5C25.4 62.0039 25.1998 62.4872 24.8435 62.8435C24.4872 63.1998 24.0039 63.4 23.5 63.4H21C20.4961 63.4 20.0128 63.1998 19.6565 62.8435C19.3002 62.4872 19.1 62.0039 19.1 61.5C19.1 60.9961 19.3002 60.5128 19.6565 60.1565C20.0128 59.8002 20.4961 59.6 21 59.6Z" fill="#E7A45D" stroke="white" stroke-width="1.2"/>
<path d="M33.5 59.6H36C36.5039 59.6 36.9872 59.8002 37.3435 60.1565C37.6998 60.5128 37.9 60.9961 37.9 61.5C37.9 62.0039 37.6998 62.4872 37.3435 62.8435C36.9872 63.1998 36.5039 63.4 36 63.4H33.5C32.9961 63.4 32.5128 63.1998 32.1565 62.8435C31.8002 62.4872 31.6 62.0039 31.6 61.5C31.6 60.9961 31.8002 60.5128 32.1565 60.1565C32.5128 59.8002 32.9961 59.6 33.5 59.6Z" fill="#E7A45D" stroke="white" stroke-width="1.2"/>
<path d="M58.5 59.6H61C61.5039 59.6 61.9872 59.8002 62.3435 60.1565C62.6998 60.5128 62.9 60.9961 62.9 61.5C62.9 62.0039 62.6998 62.4872 62.3435 62.8435C61.9872 63.1998 61.5039 63.4 61 63.4H58.5C57.9961 63.4 57.5128 63.1998 57.1565 62.8435C56.8002 62.4872 56.6 62.0039 56.6 61.5C56.6 60.9961 56.8002 60.5128 57.1565 60.1565C57.5128 59.8002 57.9961 59.6 58.5 59.6Z" fill="#E7A45D" stroke="white" stroke-width="1.2"/>
<path d="M46 59.6H48.5C49.0039 59.6 49.4872 59.8002 49.8435 60.1565C50.1998 60.5128 50.4 60.9961 50.4 61.5C50.4 62.0039 50.1998 62.4872 49.8435 62.8435C49.4872 63.1998 49.0039 63.4 48.5 63.4H46C45.4961 63.4 45.0128 63.1998 44.6565 62.8435C44.3002 62.4872 44.1 62.0039 44.1 61.5C44.1 60.9961 44.3002 60.5128 44.6565 60.1565C45.0128 59.8002 45.4961 59.6 46 59.6Z" fill="#E7A45D" stroke="white" stroke-width="1.2"/>
<path d="M21 49.6H23.5C24.0039 49.6 24.4872 49.8002 24.8435 50.1565C25.1998 50.5128 25.4 50.9961 25.4 51.5C25.4 52.0039 25.1998 52.4872 24.8435 52.8435C24.4872 53.1998 24.0039 53.4 23.5 53.4H21C20.4961 53.4 20.0128 53.1998 19.6565 52.8435C19.3002 52.4872 19.1 52.0039 19.1 51.5C19.1 50.9961 19.3002 50.5128 19.6565 50.1565C20.0128 49.8002 20.4961 49.6 21 49.6Z" fill="#E7A45D" stroke="white" stroke-width="1.2"/>
<path d="M33.5 49.6H36C36.5039 49.6 36.9872 49.8002 37.3435 50.1565C37.6998 50.5128 37.9 50.9961 37.9 51.5C37.9 52.0039 37.6998 52.4872 37.3435 52.8435C36.9872 53.1998 36.5039 53.4 36 53.4H33.5C32.9961 53.4 32.5128 53.1998 32.1565 52.8435C31.8002 52.4872 31.6 52.0039 31.6 51.5C31.6 50.9961 31.8002 50.5128 32.1565 50.1565C32.5128 49.8002 32.9961 49.6 33.5 49.6Z" fill="#E7A45D" stroke="white" stroke-width="1.2"/>
<path d="M58.5 49.6H61C61.5039 49.6 61.9872 49.8002 62.3435 50.1565C62.6998 50.5128 62.9 50.9961 62.9 51.5C62.9 52.0039 62.6998 52.4872 62.3435 52.8435C61.9872 53.1998 61.5039 53.4 61 53.4H58.5C57.9961 53.4 57.5128 53.1998 57.1565 52.8435C56.8002 52.4872 56.6 52.0039 56.6 51.5C56.6 50.9961 56.8002 50.5128 57.1565 50.1565C57.5128 49.8002 57.9961 49.6 58.5 49.6Z" fill="#E7A45D" stroke="white" stroke-width="1.2"/>
<path d="M46 49.6H48.5C49.0039 49.6 49.4872 49.8002 49.8435 50.1565C50.1998 50.5128 50.4 50.9961 50.4 51.5C50.4 52.0039 50.1998 52.4872 49.8435 52.8435C49.4872 53.1998 49.0039 53.4 48.5 53.4H46C45.4961 53.4 45.0128 53.1998 44.6565 52.8435C44.3002 52.4872 44.1 52.0039 44.1 51.5C44.1 50.9961 44.3002 50.5128 44.6565 50.1565C45.0128 49.8002 45.4961 49.6 46 49.6Z" fill="#E7A45D" stroke="white" stroke-width="1.2"/>
</svg>
