<svg width="37" height="24" viewBox="0 0 37 24" fill="none" xmlns="http://www.w3.org/2000/svg">
<path d="M15.2927 11.2305C15.2927 11.2305 18.7354 10.969 18.7354 6.84948C18.7354 2.73342 16.4005 0.704394 12.8315 0.704394L0.60498 0.685059V23.432H13.1158C13.1158 23.432 19.3712 23.6299 19.3712 16.6079C19.3712 16.6079 19.8307 11.2305 15.2927 11.2305ZM5.15437 4.0971H11.4098C11.4098 4.0971 13.5503 4.13236 13.5503 6.90748C13.5503 9.78384 11.4098 9.78384 11.4098 9.78384H5.15437V4.0971ZM11.9785 20.02H5.15437V13.1959H11.9785C11.9785 13.1959 15.3905 13.2311 15.3905 16.6079C15.3905 19.9847 12.4698 20.02 11.9785 20.02Z" fill="#B2D7C1"/>
<path d="M29.0386 6.37207C20.4937 6.37207 20.5085 14.9022 20.5085 14.9022C20.5085 14.9022 19.9398 23.4323 29.0386 23.4323C29.0386 23.4323 37 23.4323 37 16.6082H32.4506C32.4506 16.6082 32.4506 20.0202 29.0386 20.0202C29.0386 20.0202 25.6265 20.0202 25.6265 15.4708C25.6265 15.4708 34.7253 15.4708 37 15.4708C37 13.1962 37 6.37207 29.0386 6.37207ZM25.6265 13.1962C25.6265 13.1962 25.5515 9.78411 29.0386 9.78411C32.5246 9.78411 32.4506 13.1962 32.4506 13.1962H25.6265Z" fill="#B2D7C1"/>
<path d="M33.588 2.95947H24.4892V5.23417H33.588V2.95947Z" fill="#B2D7C1"/>
</svg>
