<svg width="82" height="82" viewBox="0 0 82 82" fill="none" xmlns="http://www.w3.org/2000/svg">
<path d="M37.7332 35.5594C37.7332 36.1849 37.2261 36.6941 36.6006 36.6941H9.64556C9.02003 36.6941 8.51093 36.1869 8.51093 35.5594C8.51093 34.9339 9.02003 34.4268 9.64556 34.4268H36.6006C37.2261 34.4268 37.7332 34.9339 37.7332 35.5594Z" fill="#E7A45D"/>
<path d="M23.5394 40.9271C23.5394 41.5526 23.0323 42.0617 22.4068 42.0617H9.82117C9.19761 42.0617 8.68851 41.5546 8.68851 40.9271C8.68851 40.3016 9.19761 39.7944 9.82117 39.7944H22.4048C23.0323 39.7944 23.5394 40.3016 23.5394 40.9271Z" fill="#E7A45D"/>
<path d="M23.5414 46.4139C23.5414 47.0414 23.0343 47.5466 22.4068 47.5466H9.82315C9.19762 47.5466 8.69049 47.0414 8.69049 46.4139C8.69049 45.7904 9.19762 45.2813 9.82315 45.2813H22.4048C23.0343 45.2793 23.5414 45.7884 23.5414 46.4139Z" fill="#E7A45D"/>
<path d="M37.9701 52.1698C37.9701 52.7953 37.4609 53.3024 36.8374 53.3024H9.8804C9.25487 53.3024 8.74774 52.7953 8.74774 52.1698C8.74774 51.5442 9.25487 51.0391 9.8804 51.0391H36.8374C37.4609 51.0371 37.9701 51.5423 37.9701 52.1698Z" fill="#E7A45D"/>
<path d="M37.972 57.7445C37.972 58.372 37.4629 58.8771 36.8374 58.8771H9.88236C9.25683 58.8771 8.74969 58.372 8.74969 57.7445C8.74969 57.1209 9.25683 56.6138 9.88236 56.6138H36.8374C37.4629 56.6138 37.972 57.1189 37.972 57.7445Z" fill="#E7A45D"/>
<path d="M78 61.8176C78 63.9902 76.224 65.7642 74.0534 65.7642H7.94656C5.77595 65.7642 4 63.9902 4 61.8176V19.9466C4 17.776 5.77595 16 7.94656 16H74.0534C76.224 16 78 17.776 78 19.9466V61.8176V61.8176Z" stroke="#E7A45D" stroke-width="2" stroke-miterlimit="10"/>
<path d="M4.64919 26.0615H77.4593" stroke="#E7A45D" stroke-width="2" stroke-miterlimit="10"/>
<path d="M10.356 22.166C10.9238 22.166 11.384 21.7057 11.384 21.1379C11.384 20.5701 10.9238 20.1099 10.356 20.1099C9.78817 20.1099 9.32788 20.5701 9.32788 21.1379C9.32788 21.7057 9.78817 22.166 10.356 22.166Z" fill="#E7A45D" stroke="#E7A45D" stroke-miterlimit="10"/>
<path d="M15.3878 22.1133C15.9556 22.1133 16.4159 21.653 16.4159 21.0852C16.4159 20.5174 15.9556 20.0571 15.3878 20.0571C14.82 20.0571 14.3597 20.5174 14.3597 21.0852C14.3597 21.653 14.82 22.1133 15.3878 22.1133Z" fill="#E7A45D" stroke="#E7A45D" stroke-miterlimit="10"/>
<path d="M20.4453 22.1392C21.0131 22.1392 21.4734 21.6789 21.4734 21.1111C21.4734 20.5433 21.0131 20.083 20.4453 20.083C19.8775 20.083 19.4172 20.5433 19.4172 21.1111C19.4172 21.6789 19.8775 22.1392 20.4453 22.1392Z" fill="#E7A45D" stroke="#E7A45D" stroke-miterlimit="10"/>
<path d="M71.7289 35.0049H50.1511V57.8318H71.7289V35.0049Z" stroke="#E7A45D" stroke-width="2" stroke-miterlimit="10"/>
</svg>
