<svg width="82" height="82" viewBox="0 0 82 82" fill="none" xmlns="http://www.w3.org/2000/svg">
<g clip-path="url(#clip0_157_43)">
<path d="M9.91883 39.1603L9.92099 39.1577L20.2303 26.7865C20.2307 26.7861 20.2311 26.7856 20.2315 26.7851C20.7214 26.2018 21.4222 25.8359 22.181 25.7675C22.9398 25.6991 23.6948 25.9338 24.2812 26.4202C24.8655 26.9087 25.2321 27.6091 25.3005 28.3677C25.3689 29.1269 25.1331 29.8822 24.6448 30.4675L24.6445 30.4678L16.532 40.1997L15.8648 41.0001L16.532 41.8004L24.6443 51.5321L24.6443 51.5322L24.6492 51.538C24.8935 51.8274 25.0781 52.1623 25.1926 52.5233C25.307 52.8843 25.3489 53.2644 25.316 53.6417C25.283 54.019 25.1758 54.386 25.0005 54.7217C24.8252 55.0575 24.5853 55.3552 24.2945 55.5979C24.0038 55.8406 23.6679 56.0234 23.3063 56.1358C22.9446 56.2483 22.5643 56.2881 22.1872 56.2531C21.8101 56.218 21.4436 56.1088 21.1089 55.9317C20.7741 55.7545 20.4777 55.513 20.2367 55.2209L20.2329 55.2163L9.92099 42.8421L9.91883 42.8395C9.48678 42.3239 9.25 41.6726 9.25 40.9999C9.25 40.3272 9.48678 39.676 9.91883 39.1603Z" fill="#E7A45D" stroke="white" stroke-width="2.5"/>
<path d="M43.5378 17.9999C44.1712 17.5769 44.9449 17.4188 45.6933 17.5593C46.0618 17.6325 46.4123 17.7774 46.7249 17.9859C47.0388 18.1952 47.3082 18.4645 47.5177 18.7782C47.7272 19.0919 47.8726 19.444 47.9457 19.8141C48.0188 20.1842 48.0181 20.5651 47.9435 20.9349L47.9432 20.9367L39.6937 62.1842L39.6933 62.1859C39.5641 62.8369 39.2132 63.423 38.7006 63.8446C38.1879 64.2661 37.545 64.4971 36.8813 64.4981L36.8762 64.4981C36.69 64.4992 36.5042 64.4808 36.3218 64.4432L36.3218 64.4432L36.3111 64.4411C35.941 64.3682 35.5889 64.2229 35.2751 64.0136C34.9613 63.8043 34.6919 63.5351 34.4824 63.2214C34.2729 62.9077 34.1274 62.5557 34.0543 62.1856C33.9812 61.8155 33.9819 61.4347 34.0564 61.0649L34.0567 61.0632L42.3041 19.8265C42.3044 19.8248 42.3048 19.8232 42.3051 19.8215C42.4622 19.0766 42.9046 18.4227 43.5378 17.9999Z" fill="#E7A45D" stroke="white" stroke-width="2.5"/>
<path d="M61.7634 26.7789L61.7634 26.7789L61.7672 26.7834L72.0791 39.1577L73.0393 38.3574L72.0812 39.1603C72.5133 39.6759 72.7501 40.3271 72.7501 40.9998C72.7501 41.6726 72.5133 42.3238 72.0812 42.8394L72.0791 42.842L61.767 55.2164L61.7632 55.2209C61.5221 55.513 61.2257 55.7546 60.891 55.9317C60.5562 56.1089 60.1898 56.2181 59.8126 56.2531C59.4355 56.2882 59.0552 56.2483 58.6936 56.1359C58.3319 56.0234 57.9961 55.8406 57.7053 55.5979C57.4146 55.3553 57.1746 55.0575 56.9994 54.7218C56.8241 54.3861 56.7168 54.019 56.6839 53.6417C56.6509 53.2645 56.6929 52.8844 56.8073 52.5233C56.9217 52.1623 57.1064 51.8275 57.3506 51.538L57.3507 51.5381L57.3555 51.5322L65.468 41.8004L66.1352 41L65.468 40.1996L57.3558 30.4676L57.3558 30.4676L57.3508 30.4618C57.1066 30.1724 56.9219 29.8375 56.8075 29.4765C56.6931 29.1155 56.6511 28.7354 56.6841 28.3581C56.717 27.9808 56.8243 27.6137 56.9996 27.278C57.1749 26.9423 57.4148 26.6446 57.7055 26.4019C57.9963 26.1592 58.3321 25.9764 58.6938 25.864C59.0554 25.7515 59.4358 25.7117 59.8129 25.7467C60.19 25.7817 60.5564 25.891 60.8912 26.0681C61.2259 26.2452 61.5223 26.4868 61.7634 26.7789Z" fill="#E7A45D" stroke="white" stroke-width="2.5"/>
</g>
<defs>
<clipPath id="clip0_157_43">
<rect width="66" height="66" fill="white" transform="translate(8 8)"/>
</clipPath>
</defs>
</svg>
