<svg width="38" height="41" viewBox="0 0 38 41" fill="none" xmlns="http://www.w3.org/2000/svg">
<path d="M37.1504 7.6645C37.1292 7.38422 37.1211 7.10361 37.1124 6.80644L37.1105 6.74161C37.0351 4.14054 35.2227 2.00953 32.9376 1.77343C31.3676 0.397152 29.2094 -0.255882 27.0362 0.0923532L4.28983 3.73447L3.97966 3.78414L0.664917 4.31482V4.86486C0.664917 8.42634 2.06151 10.9917 4.81589 12.4895C7.00185 13.6781 10.0258 14.2317 14.3323 14.2317H17.9464C18.3918 14.2317 18.7848 14.4469 19.0248 14.822C19.2648 15.1971 19.2955 15.644 19.1089 16.0484L16.2402 22.2665C14.8299 22.6082 13.5037 23.292 12.3311 24.2954C10.7788 25.6235 9.58754 27.4686 8.94214 29.5313H5.83092V34.603C5.83092 37.6939 7.98635 40.2625 10.7021 40.4996L10.7215 40.5276H25.9895L26.1822 40.2534C27.5923 38.2462 28.3377 35.8309 28.3377 33.2685C28.3377 32.7135 28.3015 32.1642 28.2312 31.6223H35.3249V19.7441C35.8398 19.5787 36.3168 19.2769 36.7209 18.8528C37.3724 18.1692 37.7542 17.2487 37.7961 16.2606L37.7978 16.2226L37.1504 7.6645ZM1.96722 5.41296L3.97976 5.09064V7.18758H2.20795C2.07571 6.63872 1.99571 6.04794 1.96722 5.41296ZM7.12108 30.8214H8.8385C8.63637 31.6866 7.97248 32.3753 7.12108 32.6127V30.8214ZM25.3126 39.2375H11.39L11.3857 39.2314L11.0631 39.2268C8.88946 39.1957 7.12108 37.1215 7.12108 34.603V33.8413C8.81398 33.5329 10.1018 32.0485 10.1018 30.268V30.1623C10.6557 28.2297 11.7394 26.4998 13.1699 25.2758C13.8912 24.6587 14.6784 24.1823 15.5093 23.8515C16.036 23.6418 16.5805 23.4914 17.1374 23.4021C17.5386 23.3378 17.9458 23.3034 18.3578 23.3034C19.3926 23.3034 20.4058 23.5105 21.3693 23.9192L22.2662 24.2996V20.4351C24.5665 20.7506 26.3439 22.7285 26.3439 25.114V29.3352L26.3826 29.4419C26.4889 29.7346 26.5819 30.0316 26.6629 30.3324C26.777 30.7553 26.8639 31.1861 26.9273 31.6225C27.0057 32.1631 27.0476 32.7124 27.0476 33.2688C27.0475 35.4478 26.4487 37.5041 25.3126 39.2375ZM34.0346 30.3321H27.9919C27.8928 29.9187 27.7752 29.5102 27.6338 29.1095V25.1138C27.6338 21.7983 24.9364 19.1008 21.621 19.1008H20.9759V22.4046C20.1262 22.1445 19.249 22.0131 18.3576 22.0131C18.1601 22.0131 17.9638 22.0217 17.7683 22.0343L20.2805 16.5888C20.6496 15.7889 20.5864 14.8684 20.1116 14.1265C19.6367 13.3845 18.8273 12.9416 17.9464 12.9416H14.3323C7.79949 12.9416 4.08749 11.5715 2.65208 8.47773H5.26981V4.884L27.2401 1.36617C28.5863 1.15071 29.9245 1.40186 31.053 2.02082C29.3876 2.64654 28.097 4.3045 27.8631 6.34822L27.8537 6.43015C27.8204 6.72129 27.7889 6.9962 27.745 7.27004L26.3754 15.8044L26.3679 15.8793C26.2795 17.9591 27.7243 19.7157 29.5885 19.7949L34.0346 19.8844V30.3321ZM35.7869 17.9627C35.645 18.1118 35.4891 18.2343 35.3248 18.3327C35.0112 18.5206 34.6644 18.6148 34.3095 18.5997L34.0346 18.5941L29.6366 18.5055C28.4964 18.4527 27.6143 17.3205 27.6554 15.9698L29.0188 7.47442C29.0674 7.17188 29.102 6.86934 29.1355 6.57669L29.1448 6.49508C29.3645 4.5763 30.7742 3.10788 32.4051 3.04434C32.4815 3.04144 32.5583 3.04036 32.6357 3.0437C33.3641 3.07466 34.0337 3.38505 34.5694 3.88423C35.3043 4.56909 35.7871 5.60993 35.8211 6.77881L35.8229 6.84332C35.8315 7.1422 35.8404 7.4512 35.864 7.76159L36.5055 16.2418C36.4692 16.9038 36.2149 17.5136 35.7869 17.9627Z" fill="#B2D7C1"/>
<path d="M19.9045 33.5952H13.6795V34.8854H19.9045V33.5952Z" fill="#B2D7C1"/>
<path d="M13.6635 36.5646L19.6767 37.7188L19.9199 36.4517L13.9067 35.2975L13.6635 36.5646Z" fill="#B2D7C1"/>
<path d="M14.5524 29.252H12.8322V31.1831H14.5524V29.252Z" fill="#B2D7C1"/>
<path d="M22.5812 5.06982H20.4309V7.43103H22.5812V5.06982Z" fill="#B2D7C1"/>
</svg>
