<svg width="40" height="40" viewBox="0 0 40 40" fill="none" xmlns="http://www.w3.org/2000/svg">
<g clip-path="url(#clip0_301_52)">
<path d="M32.3 20.4004C32.4 20.2004 32.4 19.9004 32.3 19.7004C32.3 19.5004 32.2 19.3004 32 19.1004L32.3 20.4004ZM18.1 24.6004V25.0004H18.5H20C20.3 25.0004 20.6 25.1004 20.8 25.3004C21 25.5004 21.1 25.8004 21.1 26.1004V38.4004C21.1 38.7004 21 39.0004 20.8 39.2004C20.6 39.4004 20.3 39.5004 20 39.5004H7.70002C5.80002 39.5004 3.90002 38.7004 2.50002 37.4004L2.20002 37.7004L2.50002 37.4004C1.10002 36.0004 0.400024 34.2004 0.400024 32.2004V7.70039C0.400024 5.80039 1.20002 3.90039 2.50002 2.50039C3.90002 1.10039 5.70002 0.400391 7.70002 0.400391H32.3C34.2 0.400391 36.1 1.20039 37.5 2.50039L37.8 2.20039L37.5 2.50039C38.9 3.90039 39.6 5.70039 39.6 7.70039V32.3004C39.6 34.2004 38.8 36.1004 37.5 37.5004C36.1 38.9004 34.3 39.6004 32.3 39.6004H26.1C25.8 39.6004 25.5 39.5004 25.3 39.3004C25.1 39.1004 25 38.8004 25 38.5004C25 38.2004 25.1 37.9004 25.3 37.7004C25.5 37.5004 25.8 37.4004 26.1 37.4004H32.3C33.6 37.4004 34.9 36.9004 35.8 35.9004C36.7 35.0004 37.3 33.7004 37.3 32.4004V7.70039C37.3 6.40039 36.8 5.10039 35.8 4.20039C34.9 3.30039 33.6 2.70039 32.3 2.70039H7.70002C6.40002 2.70039 5.10002 3.20039 4.20002 4.20039C3.20002 5.10039 2.70002 6.40039 2.70002 7.70039V32.3004C2.70002 33.6004 3.20002 34.9004 4.20002 35.8004C5.10002 36.7004 6.40002 37.3004 7.70002 37.3004H18.5H18.9V36.9004V27.7004V27.3004H18.5H17C16.7 27.3004 16.4 27.2004 16.2 27.0004C16 26.8004 15.9 26.5004 15.9 26.2004V20.0004C15.9 19.7004 16 19.4004 16.2 19.2004C16.4 19.0004 16.7 18.9004 17 18.9004H18.5H18.9V18.5004V14.7004C18.9 13.0004 19.6 11.3004 20.8 10.1004C22 8.90039 23.7 8.20039 25.4 8.20039H30.8C31.1 8.20039 31.4 8.30039 31.6 8.50039C31.8 8.70039 31.9 9.00039 31.9 9.30039V15.5004C31.9 15.8004 31.8 16.1004 31.6 16.3004C31.4 16.5004 31.1 16.6004 30.8 16.6004H27.7H27.3V17.0004V18.5004V18.9004H27.7H30.8C31 18.9004 31.2 18.9004 31.3 19.0004C31.5 19.1004 31.6 19.2004 31.7 19.3004C31.8 19.4004 31.9 19.6004 31.9 19.8004C31.9 20.0004 31.9 20.1004 31.9 20.3004L30.4 26.5004C30.3 26.8004 30.2 27.0004 30 27.1004C29.8 27.3004 29.5 27.3004 29.3 27.3004H27.8H27.4V27.7004V32.3004C27.4 32.6004 27.3 32.9004 27.1 33.1004C26.9 33.3004 26.6 33.4004 26.3 33.4004C26 33.4004 25.7 33.3004 25.5 33.1004C25.3 32.9004 25.2 32.6004 25.2 32.3004V26.1004C25.2 25.8004 25.3 25.5004 25.5 25.3004C25.7 25.1004 26 25.0004 26.3 25.0004H28H28.3L28.4 24.7004L29.2 21.6004L29.3 21.1004H28.8H26.2C25.9 21.1004 25.6 21.0004 25.4 20.8004C25.1 20.6004 25 20.3004 25 20.0004V16.9004C25 16.2004 25.3 15.5004 25.8 15.0004C26.3 14.5004 27 14.2004 27.7 14.2004H29.2H29.6V13.8004V10.7004V10.3004H29.2H25.4C24.3 10.3004 23.2 10.7004 22.4 11.5004C21.6 12.3004 21.2 13.4004 21.2 14.5004V20.0004C21.2 20.3004 21.1 20.6004 20.9 20.8004C20.7 21.0004 20.4 21.1004 20.1 21.1004H18.6H18.2V21.5004V24.6004H18.1Z" fill="#B2D7C1" stroke="white" stroke-width="0.8"/>
</g>
<defs>
<clipPath id="clip0_301_52">
<rect width="40" height="40" fill="white"/>
</clipPath>
</defs>
</svg>
