<svg width="38" height="25" viewBox="0 0 38 25" fill="none" xmlns="http://www.w3.org/2000/svg">
<path d="M24.5811 10.1562C24.7396 10.9921 24.8262 11.8671 24.8262 12.7811C24.8262 19.9219 19.9818 25 12.6667 25C5.66842 25 0 19.4062 0 12.5C0 5.59384 5.66842 0 12.6667 0C16.0869 0 18.9444 1.24205 21.1377 3.25777L17.5667 6.78143V6.77339C16.2369 5.5233 14.5508 4.88286 12.6667 4.88286C8.48685 4.88286 5.09055 8.36714 5.09055 12.4924C5.09055 16.6169 8.48685 20.1096 12.6667 20.1096C16.4588 20.1096 19.0394 17.9688 19.5706 15.0314H12.6667V10.1562H24.5811ZM34.0417 10.9375V7.03125H30.875V10.9375H26.9167V14.0625H30.875V17.9688H34.0417V14.0625H38V10.9375H34.0417Z" fill="#B2D7C1"/>
</svg>
