<svg width="43" height="44" viewBox="0 0 43 44" fill="none" xmlns="http://www.w3.org/2000/svg">
<path d="M22.3637 11.717C21.9789 11.58 21.5588 11.58 21.174 11.717C20.9217 11.8058 20.6924 11.9499 20.5029 12.1388L14.7861 17.8496C14.5496 18.0849 14.3837 18.3816 14.3071 18.7061C14.2304 19.0307 14.2461 19.3703 14.3523 19.6864L15.2996 22.5254L16.4344 22.1475L15.4881 19.3075C15.453 19.2021 15.4479 19.089 15.4734 18.9808C15.499 18.8727 15.5541 18.7738 15.6327 18.6952L21.171 13.1629V20.0494C20.6138 20.1949 20.1287 20.5384 19.8065 21.0157C19.4843 21.493 19.347 22.0713 19.4203 22.6425C19.4937 23.2137 19.7726 23.7386 20.205 24.119C20.6373 24.4994 21.1935 24.7092 21.7694 24.7092C22.3452 24.7092 22.9014 24.4994 23.3337 24.119C23.7661 23.7386 24.045 23.2137 24.1184 22.6425C24.1917 22.0713 24.0544 21.493 23.7322 21.0157C23.41 20.5384 22.9249 20.1949 22.3677 20.0494V13.1629L27.905 18.7012C27.9836 18.7798 28.0388 18.8787 28.0643 18.9868C28.0898 19.095 28.0848 19.2081 28.0496 19.3135L24.8786 28.8266H18.6571L17.1374 24.2615C17.1144 24.1848 17.0763 24.1135 17.0252 24.0518C16.9741 23.9901 16.9112 23.9393 16.8401 23.9024C16.769 23.8655 16.6912 23.8432 16.6114 23.8369C16.5316 23.8306 16.4513 23.8404 16.3753 23.8657C16.2993 23.891 16.2291 23.9313 16.169 23.9842C16.1089 24.0371 16.06 24.1016 16.0253 24.1737C15.9905 24.2459 15.9706 24.3243 15.9667 24.4043C15.9628 24.4843 15.975 24.5643 16.0026 24.6395L17.4196 28.8895C16.974 29.0021 16.5787 29.26 16.2961 29.6225C16.0134 29.9849 15.8597 30.4312 15.859 30.8908V31.4971C15.8596 32.0447 16.0773 32.5696 16.4645 32.9568C16.8517 33.344 17.3767 33.5617 17.9242 33.5623H18.5145V37.7435C18.5145 38.2195 18.7037 38.6761 19.0403 39.0127C19.3769 39.3493 19.8334 39.5384 20.3095 39.5384H23.2282C23.7043 39.5384 24.1608 39.3493 24.4974 39.0127C24.8341 38.6761 25.0232 38.2195 25.0232 37.7435V33.5623H25.6135C26.1611 33.5617 26.686 33.344 27.0732 32.9568C27.4604 32.5696 27.6781 32.0447 27.6787 31.4971V30.8908C27.678 30.4312 27.5243 29.9849 27.2417 29.6225C26.959 29.26 26.5637 29.0021 26.1181 28.8895L29.1854 19.6904C29.2927 19.3738 29.3089 19.0333 29.2322 18.7079C29.1555 18.3825 28.989 18.0851 28.7516 17.8496L23.0378 12.1358C22.8486 11.947 22.6196 11.8029 22.3677 11.714L22.3637 11.717ZM23.8265 37.7435C23.8265 37.9021 23.7635 38.0543 23.6513 38.1665C23.5391 38.2787 23.3869 38.3418 23.2282 38.3418H20.3095C20.1508 38.3418 19.9986 38.2787 19.8864 38.1665C19.7742 38.0543 19.7112 37.9021 19.7112 37.7435V33.5623H23.8265V37.7435ZM26.482 30.8908V31.4971C26.4818 31.7274 26.3902 31.9481 26.2274 32.111C26.0645 32.2738 25.8438 32.3654 25.6135 32.3656H17.9242C17.6939 32.3654 17.4732 32.2738 17.3103 32.111C17.1475 31.9481 17.0559 31.7274 17.0557 31.4971V30.8908C17.0559 30.6604 17.1475 30.4396 17.3103 30.2766C17.4731 30.1136 17.6938 30.0218 17.9242 30.0213H25.6135C25.8439 30.0218 26.0646 30.1136 26.2274 30.2766C26.3902 30.4396 26.4818 30.6604 26.482 30.8908ZM22.945 22.337C22.945 22.5689 22.8762 22.7957 22.7473 22.9886C22.6184 23.1814 22.4352 23.3318 22.2209 23.4205C22.0065 23.5092 21.7707 23.5324 21.5432 23.487C21.3157 23.4417 21.1067 23.3299 20.9428 23.1658C20.7788 23.0017 20.6672 22.7927 20.6221 22.5651C20.5769 22.3376 20.6003 22.1018 20.6892 21.8875C20.7781 21.6732 20.9286 21.4902 21.1216 21.3614C21.3145 21.2327 21.5414 21.1641 21.7733 21.1643C22.0842 21.1645 22.3822 21.2882 22.6019 21.5081C22.8216 21.728 22.945 22.0261 22.945 22.337Z" fill="#B2D7C1"/>
<path d="M41.3142 23.1351H40.0677C40.1327 23.0216 40.158 22.8897 40.1395 22.7602C39.5216 18.321 37.3171 14.2557 33.9338 11.3161C30.5505 8.37648 26.2172 6.76141 21.7352 6.76956C17.2533 6.77771 12.9258 8.40852 9.55323 11.3604C6.18063 14.3123 3.99099 18.3856 3.38924 22.827C3.37517 22.9314 3.38893 23.0377 3.42913 23.1351H2.22453C2.06585 23.1351 1.91367 23.1981 1.80146 23.3103C1.68926 23.4225 1.62622 23.5747 1.62622 23.7334V26.9244C1.62622 27.0831 1.68926 27.2353 1.80146 27.3475C1.91367 27.4597 2.06585 27.5227 2.22453 27.5227H3.40719C3.37908 27.6071 3.37089 27.6969 3.38326 27.785C3.78093 30.7587 4.89479 33.5915 6.62909 36.0397C6.72086 36.1691 6.8603 36.2568 7.01674 36.2835C7.17317 36.3101 7.33378 36.2735 7.46324 36.1818C7.5927 36.09 7.6804 35.9506 7.70705 35.7941C7.73369 35.6377 7.69711 35.4771 7.60534 35.3476C5.98356 33.0578 4.94161 30.4086 4.56891 27.6274C4.56401 27.5919 4.556 27.5568 4.54498 27.5227H5.41552C5.5742 27.5227 5.72639 27.4597 5.83859 27.3475C5.9508 27.2353 6.01383 27.0831 6.01383 26.9244V23.7334C6.01383 23.5747 5.9508 23.4225 5.83859 23.3103C5.72639 23.1981 5.5742 23.1351 5.41552 23.1351H4.53301C4.55311 23.0879 4.56718 23.0383 4.57489 22.9875C5.13724 18.8322 7.18539 15.021 10.3405 12.259C13.4956 9.49705 17.5442 7.97111 21.7375 7.96345C25.9307 7.95579 29.9848 9.46692 33.15 12.2174C36.3152 14.9678 38.3773 18.7714 38.9548 22.9247C38.9648 22.9987 38.9888 23.0701 39.0256 23.1351H38.1232C37.9645 23.1351 37.8123 23.1981 37.7001 23.3103C37.5879 23.4225 37.5249 23.5747 37.5249 23.7334V26.9244C37.5249 27.0831 37.5879 27.2353 37.7001 27.3475C37.8123 27.4597 37.9645 27.5227 38.1232 27.5227H38.9997C38.9799 27.57 38.9662 27.6196 38.9588 27.6703C38.5116 30.9496 37.1358 34.0325 34.9937 36.5554C32.8517 39.0784 30.0328 40.9361 26.8695 41.9094C23.7063 42.8826 20.3306 42.9309 17.1408 42.0485C13.951 41.1661 11.0801 39.3898 8.86678 36.9292C8.81587 36.8657 8.75257 36.8133 8.68074 36.7752C8.6089 36.737 8.53004 36.7139 8.44898 36.7073C8.36792 36.7006 8.28635 36.7106 8.20926 36.7365C8.13217 36.7625 8.06119 36.8039 8.00064 36.8582C7.94008 36.9125 7.89124 36.9786 7.85709 37.0524C7.82294 37.1262 7.8042 37.2062 7.80202 37.2875C7.79983 37.3688 7.81425 37.4497 7.84438 37.5253C7.87452 37.6008 7.91974 37.6694 7.97729 37.7269C10.3434 40.3572 13.4124 42.256 16.8223 43.1991C20.2322 44.1423 23.8407 44.0905 27.2221 43.0499C30.6036 42.0093 33.6168 40.0233 35.9065 37.3262C38.1961 34.6291 39.6666 31.3334 40.1445 27.8279C40.1585 27.7234 40.1448 27.6171 40.1046 27.5197H41.3102C41.4688 27.5197 41.621 27.4567 41.7332 27.3445C41.8454 27.2323 41.9085 27.0801 41.9085 26.9214V23.7334C41.9085 23.5754 41.846 23.4238 41.7346 23.3118C41.6233 23.1997 41.4721 23.1362 41.3142 23.1351ZM4.81721 26.3261H2.82284V24.3317H4.81721V26.3261ZM40.7158 26.3261H38.7215V24.3317H40.7158V26.3261Z" fill="#B2D7C1"/>
<path d="M3.53787 5.18536C4.09774 5.18531 4.64255 5.00402 5.09084 4.66862C5.53912 4.33321 5.86679 3.86171 6.02485 3.32461H19.2934V4.58705C19.2934 4.74573 19.3564 4.89791 19.4686 5.01012C19.5808 5.12232 19.733 5.18536 19.8917 5.18536H23.8804C24.0391 5.18536 24.1913 5.12232 24.3035 5.01012C24.4157 4.89791 24.4787 4.74573 24.4787 4.58705V3.32461H37.5129C37.692 3.93426 38.0887 4.45693 38.6276 4.79339C39.1666 5.12986 39.8104 5.25668 40.4368 5.14977C41.0631 5.04287 41.6284 4.70969 42.0252 4.2135C42.4221 3.7173 42.623 3.09264 42.5897 2.45812C42.5564 1.82361 42.2912 1.22341 41.8445 0.771502C41.3979 0.319593 40.8008 0.0474353 40.1668 0.00670561C39.5327 -0.034024 38.9057 0.15951 38.4049 0.550561C37.9041 0.941611 37.5643 1.50295 37.4501 2.12799H24.4787V0.598311C24.4787 0.439629 24.4157 0.287446 24.3035 0.175241C24.1913 0.063036 24.0391 0 23.8804 0H19.8917C19.733 0 19.5808 0.063036 19.4686 0.175241C19.3564 0.287446 19.2934 0.439629 19.2934 0.598311V2.12799H6.09266C6.00434 1.64324 5.77972 1.19369 5.44511 0.832002C5.1105 0.470314 4.67975 0.211465 4.20332 0.085775C3.72689 -0.0399148 3.22451 -0.0272404 2.75503 0.122314C2.28554 0.271868 1.86839 0.552109 1.55244 0.93021C1.2365 1.30831 1.03483 1.76862 0.971078 2.2572C0.907321 2.74579 0.984111 3.24243 1.19245 3.68895C1.40079 4.13546 1.73206 4.51337 2.14745 4.77839C2.56283 5.04341 3.04514 5.18458 3.53787 5.18536ZM39.9969 1.19662C40.273 1.19662 40.5429 1.2785 40.7725 1.4319C41.0021 1.5853 41.181 1.80333 41.2867 2.05843C41.3924 2.31353 41.42 2.59423 41.3662 2.86504C41.3123 3.13584 41.1793 3.3846 40.9841 3.57984C40.7888 3.77508 40.5401 3.90804 40.2693 3.96191C39.9985 4.01578 39.7178 3.98813 39.4627 3.88247C39.2076 3.7768 38.9895 3.59787 38.8361 3.36829C38.6827 3.13871 38.6009 2.86879 38.6009 2.59268C38.6009 2.22242 38.7479 1.86733 39.0098 1.60552C39.2716 1.34371 39.6267 1.19662 39.9969 1.19662ZM20.49 1.19662H23.2821V3.98874H20.49V1.19662ZM3.53787 1.19662C3.81398 1.19662 4.0839 1.2785 4.31348 1.4319C4.54306 1.5853 4.722 1.80333 4.82766 2.05843C4.93332 2.31353 4.96097 2.59423 4.9071 2.86504C4.85324 3.13584 4.72027 3.3846 4.52503 3.57984C4.32979 3.77508 4.08104 3.90804 3.81023 3.96191C3.53942 4.01578 3.25872 3.98813 3.00362 3.88247C2.74853 3.7768 2.53049 3.59787 2.37709 3.36829C2.22369 3.13871 2.14181 2.86879 2.14181 2.59268C2.14181 2.22242 2.2889 1.86733 2.55071 1.60552C2.81252 1.34371 3.16761 1.19662 3.53787 1.19662Z" fill="#B2D7C1"/>
</svg>
