<svg width="14" height="16" viewBox="0 0 14 16" fill="none" xmlns="http://www.w3.org/2000/svg">
<path d="M7 8C7.79112 8 8.56448 7.7654 9.22228 7.32588C9.88008 6.88635 10.3928 6.26164 10.6955 5.53073C10.9983 4.79983 11.0775 3.99556 10.9231 3.21964C10.7688 2.44372 10.3878 1.73098 9.82843 1.17157C9.26902 0.612164 8.55628 0.231202 7.78036 0.0768607C7.00444 -0.0774802 6.20017 0.00173313 5.46927 0.304484C4.73836 0.607234 4.11365 1.11992 3.67412 1.77772C3.2346 2.43552 3 3.20888 3 4C3 5.06087 3.42143 6.07828 4.17157 6.82843C4.92172 7.57857 5.93913 8 7 8ZM7 1.14286C7.56509 1.14286 8.11749 1.31043 8.58734 1.62437C9.0572 1.93832 9.4234 2.38455 9.63965 2.90662C9.8559 3.42869 9.91249 4.00317 9.80224 4.5574C9.692 5.11163 9.41988 5.62073 9.0203 6.02031C8.62072 6.41988 8.11163 6.692 7.5574 6.80224C7.00317 6.91249 6.42869 6.85591 5.90662 6.63966C5.38454 6.42341 4.93832 6.0572 4.62437 5.58734C4.31043 5.11749 4.14286 4.56509 4.14286 4C4.14286 3.24224 4.44388 2.51551 4.97969 1.9797C5.51551 1.44388 6.24224 1.14286 7 1.14286V1.14286Z" fill="#E7A45D"/>
<path d="M7.58333 9H6.41667C4.71486 9 3.08276 9.67604 1.8794 10.8794C0.67604 12.0828 0 13.7149 0 15.4167C0 15.5714 0.0614583 15.7197 0.170854 15.8291C0.280251 15.9385 0.428624 16 0.583333 16H13.4167C13.5714 16 13.7197 15.9385 13.8291 15.8291C13.9385 15.7197 14 15.5714 14 15.4167C14 13.7149 13.324 12.0828 12.1206 10.8794C10.9172 9.67604 9.28514 9 7.58333 9ZM1.20167 14.8333C1.34511 13.5504 1.95622 12.3652 2.91823 11.5044C3.88024 10.6435 5.12571 10.1673 6.41667 10.1667H7.58333C8.87429 10.1673 10.1198 10.6435 11.0818 11.5044C12.0438 12.3652 12.6549 13.5504 12.7983 14.8333H1.20167Z" fill="#E7A45D"/>
</svg>
