<svg width="82" height="82" viewBox="0 0 82 82" fill="none" xmlns="http://www.w3.org/2000/svg">
<g clip-path="url(#clip0_157_44)">
<path d="M42.9913 70.2236H20.5889C17.3677 70.2236 14.7321 67.6359 14.7321 64.4731V18.4692C14.7321 15.3065 17.3677 12.7188 20.5889 12.7188H55.7299C58.9512 12.7188 61.5868 15.3065 61.5868 18.4692V29.999M55.7299 29.999V18.4692H20.5889V58.7226H42.9913M38.1594 67.3484C39.7701 67.3484 41.0879 66.0545 41.0879 64.4731C41.0879 62.8917 39.7701 61.5979 38.1594 61.5979C36.5488 61.5979 35.231 62.8917 35.231 64.4731C35.231 66.0545 36.5488 67.3484 38.1594 67.3484Z" stroke="#E7A45D" stroke-width="2.3" stroke-miterlimit="10" stroke-linecap="round" stroke-linejoin="round"/>
<path d="M64.6324 32.2993H47.9697C46.0955 32.2993 44.5727 33.7944 44.5727 35.6346V67.6936C44.5727 69.5337 46.0955 71.0289 47.9697 71.0289H64.6031C66.4773 71.0289 68 69.5337 68 67.6936V35.6058C68 33.7657 66.4773 32.2993 64.6324 32.2993ZM46.4469 39.1424H66.1551V62.4031H46.4469V39.1424ZM47.9697 34.1107H64.6031C65.4523 34.1107 66.1551 34.8008 66.1551 35.6346V37.3597H46.4469V35.6346C46.4469 34.772 47.1204 34.1107 47.9697 34.1107ZM64.6324 69.1887H47.9697C47.1204 69.1887 46.4176 68.4986 46.4176 67.6648V64.2145H66.1258V67.6648C66.1551 68.4986 65.4816 69.1887 64.6324 69.1887Z" fill="#E7A45D"/>
<path d="M56.3156 68.5559C57.3345 68.5559 58.1605 67.7449 58.1605 66.7445C58.1605 65.7441 57.3345 64.9331 56.3156 64.9331C55.2967 64.9331 54.4707 65.7441 54.4707 66.7445C54.4707 67.7449 55.2967 68.5559 56.3156 68.5559Z" fill="#E7A45D"/>
<path d="M53.885 36.5833H58.7462C59.244 36.5833 59.6833 36.1808 59.6833 35.6632C59.6833 35.1744 59.2733 34.7432 58.7462 34.7432H53.885C53.3872 34.7432 52.9479 35.1457 52.9479 35.6632C52.9479 36.1808 53.3579 36.5833 53.885 36.5833Z" fill="#E7A45D"/>
</g>
<defs>
<clipPath id="clip0_157_44">
<rect width="54" height="59" fill="white" transform="translate(14 12)"/>
</clipPath>
</defs>
</svg>
