<svg width="38" height="47" viewBox="0 0 38 47" fill="none" xmlns="http://www.w3.org/2000/svg">
<g clip-path="url(#clip0_301_39)">
<path d="M35.06 5.45976L33.26 5.05976V4.85976C33.26 3.45976 32.06 2.25976 30.66 2.25976H20.96L11.56 0.0597647C10.16 -0.240235 8.76001 0.559765 8.46001 1.95976L8.36001 2.25976H6.46001C5.06001 2.25976 3.86001 3.35976 3.86001 4.85976V21.5598L0.0600088 37.8598C-0.239991 39.2598 0.560009 40.6598 1.96001 40.9598L3.76001 41.3598V41.5598C3.76001 42.9598 4.96001 44.1598 6.36001 44.1598H16.16H16.26L25.56 46.2598C26.96 46.5598 28.36 45.7598 28.66 44.3598L28.76 44.1598H30.66C32.06 44.1598 33.26 42.9598 33.26 41.5598V24.8598L37.06 8.55976C37.26 7.15976 36.46 5.85976 35.06 5.45976ZM3.86001 39.6598L2.46001 39.3598C1.96001 39.2598 1.66001 38.7598 1.76001 38.3598L3.86001 29.3598V39.6598V39.6598ZM11.16 1.75976L13.26 2.25976H10.16C10.26 1.85976 10.76 1.65976 11.16 1.75976ZM25.96 44.7598L23.86 44.2598H26.96C26.76 44.5598 26.36 44.8598 25.96 44.7598ZM31.46 41.6598C31.46 42.1598 31.06 42.5598 30.56 42.5598H6.46001C5.96001 42.5598 5.56001 42.1598 5.56001 41.6598V4.85976C5.56001 4.35976 5.96001 3.95976 6.46001 3.95976H30.66C31.16 3.95976 31.56 4.35976 31.56 4.85976V41.6598H31.46ZM35.26 8.25976L33.16 17.2598V6.85976L34.56 7.15976C35.06 7.25976 35.36 7.75976 35.26 8.25976C35.26 8.15976 35.26 8.15976 35.26 8.25976Z" fill="#B2D7C1"/>
<path d="M27.16 37.7594H10.76V30.7594C10.76 30.2594 10.36 29.8594 9.86002 29.8594C9.36002 29.8594 8.96002 30.2594 8.96002 30.7594V38.6594C8.96002 39.1594 9.36002 39.5594 9.86002 39.5594H27.16C27.66 39.5594 28.06 39.1594 28.06 38.6594C28.06 38.1594 27.66 37.7594 27.16 37.7594Z" fill="#B2D7C1"/>
<path d="M12.76 15.6596C14.86 15.6596 16.46 13.9596 16.46 11.9596C16.46 11.2596 16.26 10.5596 15.86 9.95957L17.56 8.35957C17.86 8.05957 17.86 7.45957 17.56 7.15957C17.26 6.85957 16.66 6.85957 16.36 7.15957L12.86 10.6596L10.86 8.65957C10.46 8.35957 9.96002 8.35957 9.56002 8.75957C9.26002 9.05957 9.26002 9.65957 9.56002 9.95957C9.16002 10.5596 8.96002 11.2596 8.96002 11.9596C9.06002 13.9596 10.76 15.6596 12.76 15.6596ZM10.86 11.2596L12.16 12.5596C12.36 12.7596 12.56 12.7596 12.76 12.8596C12.96 12.8596 13.16 12.7596 13.36 12.5596L14.66 11.2596C14.76 11.4596 14.76 11.6596 14.76 11.9596C14.66 13.0596 13.76 13.9596 12.66 13.8596C11.66 13.7596 10.86 12.9596 10.76 11.9596C10.76 11.6596 10.76 11.4596 10.86 11.2596Z" fill="#B2D7C1"/>
<path d="M12.76 25.0596C14.86 25.0596 16.46 23.3596 16.56 21.3596C16.66 19.3596 14.86 17.6596 12.86 17.5596C10.86 17.4596 9.06 19.2596 9.06 21.3596C9.06 23.4596 10.76 25.0596 12.76 25.0596ZM12.76 19.3596C13.86 19.3596 14.76 20.2596 14.76 21.3596C14.76 22.4596 13.86 23.3596 12.76 23.3596C11.66 23.3596 10.76 22.4596 10.76 21.3596C10.76 20.2596 11.66 19.3596 12.76 19.3596Z" fill="#B2D7C1"/>
<path d="M27.16 26.96H23.76C23.26 26.96 22.86 27.36 22.86 27.86C22.86 28.36 23.26 28.76 23.76 28.76H25.06L20.26 33.56L16.86 30.06C16.56 29.76 15.96 29.76 15.66 30.06L12.56 33.26C12.16 33.56 12.16 34.16 12.46 34.46C12.76 34.86 13.36 34.86 13.66 34.56L13.76 34.46L16.26 31.96L19.66 35.36C19.96 35.66 20.56 35.66 20.86 35.36L26.26 29.96V31.26C26.26 31.76 26.66 32.16 27.16 32.16C27.66 32.16 28.06 31.76 28.06 31.26V27.86C28.06 27.36 27.66 26.96 27.16 26.96Z" fill="#B2D7C1"/>
<path d="M19.66 20.4602H23.36C23.86 20.4602 24.26 20.0602 24.26 19.5602C24.26 19.0602 23.86 18.6602 23.36 18.6602H19.66C19.16 18.6602 18.76 19.0602 18.76 19.5602C18.76 20.0602 19.26 20.4602 19.66 20.4602Z" fill="#B2D7C1"/>
<path d="M19.66 23.9602H26.76C27.26 23.9602 27.66 23.5602 27.66 23.0602C27.66 22.5602 27.26 22.1602 26.76 22.1602H19.66C19.16 22.1602 18.76 22.5602 18.76 23.0602C18.76 23.5602 19.26 23.9602 19.66 23.9602Z" fill="#B2D7C1"/>
<path d="M19.66 11.0598H23.36C23.86 11.0598 24.26 10.6598 24.26 10.1598C24.26 9.65977 23.86 9.25977 23.36 9.25977H19.66C19.16 9.25977 18.76 9.65977 18.76 10.1598C18.86 10.6598 19.26 11.0598 19.66 11.0598Z" fill="#B2D7C1"/>
<path d="M19.66 14.4602H26.76C27.26 14.4602 27.66 14.0602 27.66 13.5602C27.66 13.0602 27.26 12.6602 26.76 12.6602H19.66C19.16 12.6602 18.76 13.0602 18.76 13.5602C18.86 14.1602 19.26 14.4602 19.66 14.4602Z" fill="#B2D7C1"/>
</g>
<defs>
<clipPath id="clip0_301_39">
<rect width="37.09" height="46.33" fill="white"/>
</clipPath>
</defs>
</svg>
