<svg width="82" height="82" viewBox="0 0 82 82" fill="none" xmlns="http://www.w3.org/2000/svg">
<path d="M70.348 68.6453L70.348 68.6459C70.3483 68.6525 70.3486 68.6591 70.3488 68.6658C70.3496 68.6882 70.35 68.7109 70.35 68.7341C70.3497 71.8014 67.8722 74.2893 64.8381 74.2893H18.1621C15.1277 74.2893 12.65 71.8003 12.65 68.7327C12.65 68.7033 12.6507 68.6733 12.6519 68.6434C12.6519 68.6433 12.6519 68.6432 12.6519 68.6431L14.6601 22.8093L14.6606 22.7984L14.6607 22.7876C14.6924 19.7561 17.1562 17.3019 20.1709 17.3019H30.3705H30.9283L31.013 16.7506C31.7955 11.6528 36.2066 7.65 41.493 7.65C46.7777 7.65 51.1875 11.6526 51.9699 16.7505L52.0545 17.3019H52.6124H62.826C65.8419 17.3019 68.3063 19.7563 68.3381 22.7875L68.3382 22.7983L68.3387 22.8092L70.348 68.6453ZM47.26 17.3019H48.1282L47.8837 16.4689C47.0669 13.6855 44.5182 11.6363 41.493 11.6363C38.4665 11.6363 35.9166 13.6853 35.0993 16.4688L34.8546 17.3019H35.7229H47.26ZM16.5848 68.7476L16.5836 68.7751L16.5847 68.8027C16.6194 69.6508 17.3092 70.3087 18.1621 70.3087H64.8381C65.6923 70.3087 66.3805 69.6479 66.4152 68.8013L66.4163 68.7738L66.4151 68.7463L64.4069 22.9359C64.4069 22.9359 64.4069 22.9358 64.4069 22.9358C64.4057 22.9072 64.405 22.8747 64.405 22.8443C64.405 21.9676 63.6959 21.2826 62.826 21.2826H52.7133H52.0633V21.9326V31.5922C52.0633 32.7001 51.1786 33.5853 50.0994 33.5853C49.0203 33.5853 48.1355 32.7001 48.1355 31.5922V21.9326V21.2826H47.4855H35.4458H34.7958V21.9326V31.5922C34.7958 32.7001 33.911 33.5853 32.8319 33.5853C31.7528 33.5853 30.868 32.7001 30.868 31.5922V21.9326V21.2826H30.218H20.1709C19.3001 21.2826 18.5936 21.97 18.5936 22.845C18.5936 22.8762 18.5929 22.9122 18.5917 22.9399L18.5917 22.9399L16.5848 68.7476Z" fill="#E7A45D" stroke="white" stroke-width="1.3"/>
</svg>
