<svg width="39" height="38" viewBox="0 0 39 38" fill="none" xmlns="http://www.w3.org/2000/svg">
<g clip-path="url(#clip0_301_15)">
<path d="M22.5 8.3799C22.5 10.1599 21.05 11.6099 19.27 11.6099C17.49 11.6099 16.04 10.1599 16.04 8.3799C16.04 6.5999 17.49 5.1499 19.27 5.1499C21.05 5.1499 22.5 6.5899 22.5 8.3799Z" stroke="#B2D7C1"/>
<path d="M21.58 19.1C22.54 18.17 23.46 17.14 23.61 16.96C26.02 14.04 27.22 10.35 26.88 7.09M21.58 19.1C20.99 19.68 20.51 20.11 20.11 20.39C19.7 20.68 19.44 20.77 19.28 20.77C19.2 20.77 19.13 20.75 19.04 20.69C15.07 17.92 12.4 13.83 11.69 9.5C11.31 7.16 11.94 4.84 13.4 3.12M13.41 3.12C14.85 1.43 16.89 0.5 19.19 0.5C20.83 0.5 22.59 1.08 23.99 2.11C25.49 3.21 26.47 4.69 26.77 6.29M26.77 6.29C26.82 6.56 26.86 6.83 26.89 7.1L26.77 6.29Z" stroke="#B2D7C1"/>
<path d="M5.82 23.1501C5.46 23.4701 5.27 23.7001 5.25 23.7301C4.99 24.0601 5.04 24.5301 5.37 24.7901C5.51 24.9001 5.68 24.9601 5.84 24.9601C6.06 24.9601 6.28 24.8601 6.43 24.6801C6.43 24.6801 6.56 24.5201 6.82 24.2901C7.13 24.0101 7.16 23.5401 6.89 23.2201C6.61 22.9001 6.13 22.8701 5.82 23.1501Z" fill="#B2D7C1"/>
<path d="M21.41 24.8698C21.04 24.6798 20.58 24.8298 20.4 25.2098C20.22 25.5898 20.36 26.0398 20.74 26.2198C21.18 26.4398 21.6 26.6298 22.01 26.7998C22.1 26.8398 22.2 26.8598 22.3 26.8598C22.6 26.8598 22.88 26.6798 23 26.3898C23.16 25.9998 22.98 25.5598 22.59 25.3998C22.2 25.2498 21.82 25.0698 21.41 24.8698Z" fill="#B2D7C1"/>
<path d="M16.32 22.0402C15.94 21.8602 15.49 22.0102 15.31 22.3902C15.13 22.7702 15.28 23.2202 15.66 23.4002C16 23.5702 16.38 23.7702 16.81 24.0102C16.93 24.0802 17.05 24.1102 17.18 24.1102C17.44 24.1102 17.7 23.9702 17.84 23.7202C18.04 23.3602 17.92 22.9002 17.55 22.6902C17.08 22.4302 16.68 22.2202 16.32 22.0402Z" fill="#B2D7C1"/>
<path d="M11.65 21.01C11.16 21.02 10.68 21.07 10.21 21.14C9.80002 21.21 9.52002 21.6 9.59002 22.01C9.65002 22.38 9.97002 22.64 10.33 22.64C10.37 22.64 10.41 22.64 10.45 22.63C10.85 22.56 11.26 22.53 11.68 22.52C12.1 22.51 12.43 22.16 12.42 21.74C12.42 21.32 12.07 21 11.65 21.01Z" fill="#B2D7C1"/>
<path d="M26.63 27.7999C27.11 27.7999 27.6 27.7599 28.08 27.6899C28.49 27.6299 28.78 27.2399 28.71 26.8299C28.65 26.4199 28.26 26.1299 27.85 26.1999C27.44 26.2599 27.03 26.2899 26.62 26.2999C26.2 26.2999 25.87 26.6399 25.87 27.0599C25.87 27.4599 26.21 27.7999 26.63 27.7999Z" fill="#B2D7C1"/>
<path d="M32.12 26.0998C32.25 26.0998 32.39 26.0598 32.51 25.9898C32.71 25.8698 32.91 25.7398 33.11 25.5998C33.46 25.3698 33.55 24.8998 33.31 24.5498C33.08 24.1998 32.61 24.1098 32.26 24.3498C32.08 24.4698 31.9 24.5898 31.72 24.6998C31.36 24.9198 31.25 25.3798 31.47 25.7398C31.62 25.9698 31.86 26.0998 32.12 26.0998Z" fill="#B2D7C1"/>
<path d="M38.39 30.1202L34.57 18.0402C34.18 16.8002 33.04 15.9702 31.74 15.9702H26.69C26.27 15.9702 25.93 16.3102 25.93 16.7302C25.93 17.1502 26.27 17.4902 26.69 17.4902H31.24L26.38 21.9602C26.07 22.2402 26.05 22.7202 26.34 23.0302C26.49 23.1902 26.69 23.2702 26.9 23.2702C27.08 23.2702 27.27 23.2002 27.41 23.0702L32.88 18.0402L32.89 18.0302C33 18.1702 33.09 18.3302 33.14 18.5002L36.96 30.5802C37.1 31.0302 37.02 31.5002 36.75 31.8802C36.47 32.2602 36.05 32.4702 35.58 32.4702H33.04L30.19 29.3102C29.91 29.0002 29.43 28.9802 29.12 29.2502C28.81 29.5302 28.79 30.0102 29.06 30.3202L30.99 32.4602H9.01001L13 26.8502C13.24 26.5102 13.16 26.0402 12.82 25.8002C12.48 25.5602 12.01 25.6402 11.77 25.9802L7.16001 32.4702H2.97001C2.50001 32.4702 2.07001 32.2502 1.80001 31.8802C1.52001 31.5002 1.45001 31.0302 1.59001 30.5802L5.40001 18.5002C5.59001 17.8902 6.15001 17.4902 6.79001 17.4902H11.84C12.26 17.4902 12.6 17.1502 12.6 16.7302C12.6 16.3102 12.26 15.9702 11.84 15.9702H6.79001C5.49001 15.9702 4.36001 16.8002 3.96001 18.0402L0.140009 30.1202C-0.149991 31.0302 0.0100086 32.0002 0.580009 32.7702C1.14001 33.5402 2.02001 33.9802 2.97001 33.9802H35.57C36.53 33.9802 37.4 33.5402 37.96 32.7702C38.52 32.0002 38.68 31.0302 38.39 30.1202Z" fill="#B2D7C1"/>
<path d="M19.07 35.5601H8.79998C8.37998 35.5601 8.03998 35.9001 8.03998 36.3201C8.03998 36.7401 8.37998 37.0801 8.79998 37.0801H19.07C19.49 37.0801 19.83 36.7401 19.83 36.3201C19.83 35.9001 19.49 35.5601 19.07 35.5601Z" fill="#B2D7C1"/>
<path d="M23.91 35.5601H22.25C21.83 35.5601 21.49 35.9001 21.49 36.3201C21.49 36.7401 21.83 37.0801 22.25 37.0801H23.91C24.33 37.0801 24.67 36.7401 24.67 36.3201C24.67 35.9001 24.33 35.5601 23.91 35.5601Z" fill="#B2D7C1"/>
<path d="M33.13 35.5601H26.93C26.51 35.5601 26.17 35.9001 26.17 36.3201C26.17 36.7401 26.51 37.0801 26.93 37.0801H33.13C33.55 37.0801 33.89 36.7401 33.89 36.3201C33.89 35.9001 33.55 35.5601 33.13 35.5601Z" fill="#B2D7C1"/>
</g>
<defs>
<clipPath id="clip0_301_15">
<rect width="38.53" height="37.07" fill="white"/>
</clipPath>
</defs>
</svg>
